<svg xmlns:dc="http://purl.org/dc/elements/1.1/" xmlns:cc="http://creativecommons.org/ns#" xmlns:rdf="http://www.w3.org/1999/02/22-rdf-syntax-ns#" xmlns:svg="http://www.w3.org/2000/svg" xmlns="http://www.w3.org/2000/svg" xmlns:sodipodi="http://sodipodi.sourceforge.net/DTD/sodipodi-0.dtd" xmlns:inkscape="http://www.inkscape.org/namespaces/inkscape" width="38.731625mm" height="38.731625mm" viewBox="0 0 38.731625 38.731625" version="1.1" id="svg2017" inkscape:version="0.92.3 (2405546, 2018-03-11)" sodipodi:docname="bc-allschwil-klub-teams.svg">
  <defs id="defs2011"/>
  <sodipodi:namedview id="base" pagecolor="#ffffff" bordercolor="#666666" borderopacity="1.0" inkscape:pageopacity="0.0" inkscape:pageshadow="2" inkscape:zoom="0.35" inkscape:cx="104.12526" inkscape:cy="-71.847707" inkscape:document-units="mm" inkscape:current-layer="layer1" showgrid="false" fit-margin-top="0" fit-margin-left="0" fit-margin-right="0" fit-margin-bottom="0" inkscape:window-width="960" inkscape:window-height="1061" inkscape:window-x="960" inkscape:window-y="0" inkscape:window-maximized="0"/>
  <metadata id="metadata2014">
    <rdf:RDF>
      <cc:Work rdf:about="">
        <dc:format>image/svg+xml</dc:format>
        <dc:type rdf:resource="http://purl.org/dc/dcmitype/StillImage"/>
        <dc:title/>
      </cc:Work>
    </rdf:RDF>
  </metadata>
  <g inkscape:label="Layer 1" inkscape:groupmode="layer" id="layer1" transform="translate(-105.65529,-170)">
    <path style="fill:#ff7f2aff;fill-opacity:1;stroke-width:0.02252177" d="m 124.86006,200.44904 c -0.005,-0.009 0.0226,-0.0327 0.0623,-0.0532 0.095,-0.0491 0.57449,-0.36683 0.77391,-0.5128 0.55142,-0.40357 0.94616,-0.74524 1.49922,-1.29765 0.79039,-0.78943 1.35291,-1.49563 1.96517,-2.46709 0.14488,-0.22988 0.47903,-0.81773 0.56701,-0.9975 0.0372,-0.0759 0.0787,-0.14262 0.0923,-0.14818 0.0314,-0.0129 0.36432,0.15162 0.5274,0.26053 0.4908,0.32779 0.85614,0.89297 1.02352,1.58333 0.0591,0.24366 0.0766,0.32943 0.0895,0.43917 0.007,0.0557 0.0197,0.16722 0.0292,0.24773 0.009,0.0805 0.0172,0.31286 0.0172,0.51631 v 0.3699 l -0.28153,0.18866 c -0.92611,0.6206 -2.00288,1.13022 -2.98413,1.41233 -0.0743,0.0214 -0.16048,0.0476 -0.19143,0.0584 -0.0564,0.0196 -0.39999,0.10394 -0.67671,0.16614 -0.20397,0.0459 -0.77015,0.1425 -0.93361,0.15936 -0.0743,0.008 -0.20607,0.0249 -0.29278,0.0383 -0.18605,0.0288 -1.27241,0.0594 -1.28666,0.0363 z m -1.29208,-0.0781 c -0.031,-0.005 -0.15259,-0.0244 -0.27026,-0.0433 -2.0962,-0.3353 -4.02267,-1.24921 -5.61918,-2.66569 -0.30414,-0.26984 -0.87313,-0.8358 -0.85675,-0.85218 0.005,-0.005 0.10375,0.008 0.2191,0.028 0.39358,0.0702 0.4577,0.0786 0.80656,0.10476 0.47924,0.036 1.3953,0.0138 1.84678,-0.0447 0.38342,-0.0497 0.74929,-0.1121 1.19627,-0.204 0.51392,-0.10567 1.502,-0.38074 2.35091,-0.65447 0.16103,-0.0519 0.36879,-0.11799 0.4617,-0.14679 0.0929,-0.0288 0.22972,-0.0722 0.30404,-0.0964 0.0743,-0.0242 0.27195,-0.0864 0.43918,-0.13815 0.16722,-0.0517 0.34458,-0.10829 0.39413,-0.12564 0.0894,-0.0313 0.13635,-0.045 0.74322,-0.21683 0.74836,-0.21187 1.45986,-0.37093 1.99317,-0.44554 0.10529,-0.0147 0.26238,-0.0385 0.34909,-0.0529 0.1736,-0.0288 1.25843,-0.0379 1.28553,-0.0109 0.0221,0.0221 -0.008,0.086 -0.19814,0.42238 -0.36646,0.64778 -0.79154,1.28863 -1.18763,1.79048 -0.13306,0.16857 -0.54201,0.66087 -0.59168,0.71226 -0.0165,0.017 -0.12987,0.13738 -0.25202,0.26743 -0.86226,0.91812 -1.95397,1.75215 -3.00081,2.29253 -0.18058,0.0932 -0.2477,0.10615 -0.41321,0.0796 z m 8.4907,-2.60747 c 0,-0.39861 -0.11329,-1.02612 -0.26213,-1.45186 -0.0689,-0.19696 -0.24393,-0.55835 -0.35341,-0.72948 -0.18536,-0.28976 -0.45864,-0.57166 -0.76853,-0.79281 -0.1505,-0.10739 -0.51797,-0.30393 -0.56827,-0.30393 -0.0163,0 -0.0296,-0.0106 -0.0296,-0.0238 0,-0.0238 0.11865,-0.31886 0.201,-0.49994 0.0446,-0.098 0.21968,-0.54467 0.27478,-0.70088 l 0.0308,-0.0873 0.14649,0.0136 c 0.0806,0.008 0.2681,0.029 0.41674,0.0478 0.33995,0.0429 0.84897,0.0974 1.17114,0.12523 0.57404,0.0497 2.19352,0.12144 2.31259,0.10246 0.10128,-0.0161 0.71658,-0.0376 0.71658,-0.025 0,0.014 -0.0856,0.23379 -0.12292,0.3158 -0.0169,0.0371 -0.063,0.13849 -0.10246,0.22521 -0.57314,1.26068 -1.40443,2.43128 -2.42338,3.41255 -0.27459,0.26443 -0.59116,0.54002 -0.62033,0.54002 -0.0105,0 -0.0191,-0.0755 -0.0191,-0.16775 z m -14.05358,-1.36261 c -0.57881,-0.0354 -1.43262,-0.19666 -1.79217,-0.33848 -0.051,-0.0201 -0.48165,-0.63644 -0.7085,-1.01395 -0.14349,-0.23881 -0.53025,-0.98755 -0.62821,-1.21616 -0.0292,-0.0681 -0.0706,-0.16441 -0.0919,-0.21396 -0.0918,-0.21293 -0.29036,-0.76454 -0.36877,-1.02475 -0.21313,-0.70723 -0.36302,-1.47561 -0.41955,-2.15082 -0.0124,-0.14866 -0.0327,-0.38234 -0.045,-0.51933 -0.0285,-0.31783 -0.0286,-0.82652 -5.3e-4,-1.14597 0.0122,-0.13698 0.0325,-0.36561 0.0451,-0.50806 0.0493,-0.55644 0.13262,-1.0331 0.28537,-1.63283 0.0568,-0.22297 0.10829,-0.42819 0.11443,-0.45606 0.006,-0.0279 0.0151,-0.0507 0.0199,-0.0507 0.005,0 0.19873,0.19038 0.43092,0.42304 1.16694,1.16937 2.74211,2.24291 4.79139,3.26552 0.29543,0.14743 0.38211,0.18889 0.75448,0.36091 0.0805,0.0372 0.23761,0.10986 0.34909,0.16149 0.35789,0.16575 1.24513,0.5296 1.813,0.7435 0.30348,0.11431 0.57206,0.21607 0.59683,0.2261 0.0248,0.0101 0.14132,0.0503 0.259,0.0895 0.11768,0.0392 0.23423,0.0799 0.259,0.0905 0.0848,0.0362 1.03999,0.34836 1.17113,0.38274 0.0372,0.01 0.18412,0.0535 0.32657,0.0973 0.97726,0.30044 2.39651,0.65102 3.53592,0.87342 0.46898,0.0915 0.55729,0.10777 0.91776,0.16874 0.32153,0.0544 0.36598,0.0671 0.36598,0.10433 0,0.0452 -0.26261,0.69183 -0.40773,1.00398 -0.0479,0.10303 -0.0971,0.18112 -0.1094,0.17354 -0.0443,-0.0274 -0.58084,-0.079 -0.82292,-0.0791 -0.2218,0 -0.81493,0.0463 -0.99096,0.0775 -0.0372,0.007 -0.16891,0.0279 -0.29278,0.0473 -0.38819,0.0608 -1.1569,0.22352 -1.43013,0.30267 -0.0433,0.0126 -0.23085,0.0637 -0.41666,0.11373 -0.1858,0.05 -0.41383,0.11461 -0.50673,0.14358 -0.0929,0.029 -0.27534,0.0853 -0.4054,0.12507 -0.25353,0.0776 -0.70062,0.21975 -0.95717,0.30434 -0.60209,0.19852 -1.57552,0.49535 -1.9594,0.59751 -0.90699,0.24136 -1.53566,0.36699 -2.18461,0.43655 -0.391,0.0419 -1.12363,0.0601 -1.4977,0.0372 z m 14.87562,-3.56085 c -0.69916,-0.05 -1.55419,-0.13193 -1.71164,-0.16406 -0.0248,-0.005 -0.11599,-0.0166 -0.2027,-0.0256 -0.0867,-0.009 -0.16426,-0.0204 -0.17235,-0.0253 -0.008,-0.005 3.9e-4,-0.0571 0.019,-0.11595 0.16854,-0.53442 0.37306,-1.35977 0.48416,-1.9538 l 0.0295,-0.15764 0.12387,-0.0147 c 0.58852,-0.0701 0.9766,-0.18309 1.49769,-0.43621 0.85521,-0.41541 1.64619,-1.11732 2.10568,-1.86851 0.21411,-0.35003 0.44536,-0.86926 0.60699,-1.36285 0.0743,-0.22687 0.0707,-0.22066 0.0935,-0.1614 0.0793,0.20602 0.24669,1.1015 0.29957,1.6028 0.0555,0.5267 0.0587,0.59075 0.0587,1.2049 0,0.8681 -0.0533,1.44032 -0.20524,2.20454 -0.0459,0.23089 -0.16451,0.72155 -0.19932,0.82465 -0.0105,0.031 -0.0469,0.14887 -0.0809,0.26203 l -0.0619,0.20572 -0.10115,0.0139 c -0.22311,0.0306 -2.01663,0.008 -2.58353,-0.0325 z m -2.72512,-0.30336 c -0.0124,-0.003 -0.0935,-0.0173 -0.18018,-0.0313 -0.57767,-0.0935 -0.8184,-0.13681 -1.28374,-0.23128 -0.1858,-0.0377 -0.38343,-0.0773 -0.43917,-0.088 -0.0557,-0.0106 -0.14189,-0.0295 -0.19144,-0.0418 -0.0496,-0.0123 -0.23198,-0.0538 -0.40539,-0.0922 -0.31027,-0.0688 -1.39944,-0.34041 -1.53148,-0.38193 -0.0652,-0.0205 -0.15341,-0.0459 -0.41666,-0.11996 -0.50984,-0.14346 -1.41799,-0.43042 -1.91435,-0.60489 -0.47123,-0.16565 -0.75388,-0.26729 -0.79952,-0.28752 -0.0248,-0.011 -0.12105,-0.0474 -0.21396,-0.081 -0.0929,-0.0336 -0.19931,-0.0741 -0.23647,-0.0901 -0.0372,-0.016 -0.16385,-0.0665 -0.28152,-0.11222 -0.11768,-0.0457 -0.24437,-0.0966 -0.28153,-0.113 -0.0372,-0.0164 -0.13344,-0.0568 -0.21396,-0.0897 -0.16032,-0.0655 -0.20686,-0.0858 -0.43511,-0.18886 -0.0845,-0.0382 -0.15725,-0.0694 -0.16171,-0.0694 -0.008,0 -0.0659,-0.0262 -0.56304,-0.25413 -0.28071,-0.12873 -1.3772,-0.6779 -1.56527,-0.78397 -0.0681,-0.0384 -0.22522,-0.12644 -0.34909,-0.1956 -1.0614,-0.59259 -2.16957,-1.35833 -2.94118,-2.03231 -0.42436,-0.37067 -1.10148,-1.0845 -1.10148,-1.1612 0,-0.0592 0.25709,-0.66159 0.43581,-1.02108 0.64515,-1.29773 1.44599,-2.35912 2.51649,-3.33518 0.31054,-0.28315 0.27906,-0.26977 0.58362,-0.24795 1.23498,0.0885 2.25179,0.43165 3.15724,1.06553 0.3661,0.2563 0.6025,0.46009 1.0214,0.88053 0.6184,0.62068 1.18323,1.33364 1.97333,2.49091 0.0803,0.11768 0.22556,0.33051 0.32272,0.47296 0.84556,1.23975 1.28999,1.80293 1.91192,2.42279 0.58536,0.58344 1.04496,0.95016 1.66937,1.33202 0.77257,0.47247 1.65683,0.78636 2.34789,0.83343 0.10103,0.007 0.16317,0.0209 0.16298,0.0368 -5.1e-4,0.0274 -0.0612,0.32161 -0.12422,0.59999 -0.021,0.0929 -0.0433,0.19426 -0.0496,0.22522 -0.0515,0.25535 -0.35434,1.27431 -0.38366,1.29084 -0.009,0.005 -0.0267,0.007 -0.0391,0.004 z m 0.33782,-2.72418 c -0.4078,-0.0646 -0.84907,-0.18416 -1.08445,-0.29384 -0.039,-0.0182 -0.0772,-0.0331 -0.0849,-0.0331 -0.0197,0 -0.51597,-0.24644 -0.67745,-0.33645 -0.0743,-0.0414 -0.22546,-0.13583 -0.33586,-0.20981 -0.90199,-0.60434 -1.63457,-1.31677 -2.39107,-2.32527 -0.20588,-0.27446 -0.32159,-0.43925 -1.08363,-1.54328 -1.12739,-1.63336 -1.74788,-2.38558 -2.54273,-3.08256 -0.45243,-0.39672 -1.08879,-0.8247 -1.51807,-1.02098 -0.67879,-0.31035 -1.15536,-0.44798 -2.03822,-0.58861 l -0.18018,-0.0287 0.29279,-0.19232 c 0.63821,-0.41927 1.25656,-0.7531 1.84678,-0.99704 0.17342,-0.0717 0.34571,-0.14353 0.38287,-0.15967 0.10516,-0.0457 0.59114,-0.2052 0.86029,-0.28243 0.45268,-0.1299 0.92304,-0.23424 1.35811,-0.3013 0.13006,-0.02 0.29728,-0.0458 0.3716,-0.0572 0.0743,-0.0115 0.23648,-0.0265 0.36035,-0.0336 0.12387,-0.007 0.3367,-0.0239 0.47296,-0.0375 0.37169,-0.037 1.37453,10e-4 1.89183,0.071 0.65326,0.0888 1.36591,0.24097 1.84428,0.39369 0.0977,0.0312 0.19011,0.0567 0.2053,0.0567 0.0616,0 0.15148,0.10453 0.31902,0.37127 0.38414,0.61156 0.70844,1.20932 0.95932,1.76829 0.0306,0.0681 0.0772,0.17146 0.10365,0.22961 0.0264,0.0582 0.048,0.11107 0.048,0.11758 0,0.006 0.024,0.0653 0.0533,0.13074 0.0293,0.0654 0.0807,0.19492 0.11421,0.28782 0.0335,0.0929 0.0716,0.19424 0.0845,0.22522 0.10284,0.24598 0.38136,1.17058 0.47829,1.58779 0.0201,0.0867 0.0468,0.19819 0.0593,0.24773 0.0841,0.33403 0.22903,1.21285 0.29149,1.76796 0.14252,1.26674 0.11322,2.90795 -0.0734,4.11021 l -0.028,0.18019 -0.0901,0.003 c -0.0495,0.002 -0.17116,-0.01 -0.27026,-0.0254 z m 0.95064,-0.005 c -0.006,-0.01 0.004,-0.13414 0.021,-0.27658 0.0972,-0.81223 0.12286,-1.22004 0.12943,-2.06074 0.008,-1.07266 -0.0328,-1.6924 -0.17894,-2.69135 -0.14593,-0.99773 -0.41956,-2.06614 -0.78735,-3.07423 -0.0452,-0.12387 -0.0929,-0.25563 -0.10609,-0.29278 -0.0132,-0.0372 -0.0308,-0.0777 -0.0393,-0.0901 -0.008,-0.0124 -0.034,-0.0732 -0.0567,-0.13513 -0.0227,-0.0619 -0.0802,-0.19683 -0.12775,-0.29974 -0.0476,-0.10293 -0.0865,-0.19205 -0.0865,-0.19806 0,-0.0163 -0.39194,-0.79798 -0.47485,-0.947 -0.0396,-0.0712 -0.12133,-0.21512 -0.18163,-0.31992 -0.0603,-0.10479 -0.10459,-0.19558 -0.0984,-0.20176 0.0158,-0.0158 0.14944,0.0445 0.56346,0.25466 0.75219,0.38174 1.3682,0.78229 2.02404,1.31616 0.89682,0.73002 1.68341,1.61292 2.33892,2.62532 0.29353,0.45331 0.6655,1.16389 0.88178,1.68445 l 0.12907,0.31064 -0.0358,0.19611 c -0.23436,1.28353 -0.71885,2.30532 -1.40283,2.95858 -0.65289,0.62356 -1.3849,1.03149 -2.13343,1.18893 -0.29648,0.0624 -0.36694,0.0721 -0.37815,0.0525 z" id="path2289" inkscape:connector-curvature="0"/>
    <circle r="18.97398" cy="189.36581" cx="125.0211" id="circle3099" style="fill:none;fill-opacity:1;stroke:#ff7f2aff;stroke-width:0.78366524;stroke-miterlimit:4;stroke-dasharray:none;stroke-opacity:1"/>
  </g>
</svg>