<svg xmlns:dc="http://purl.org/dc/elements/1.1/" xmlns:cc="http://creativecommons.org/ns#" xmlns:rdf="http://www.w3.org/1999/02/22-rdf-syntax-ns#" xmlns:svg="http://www.w3.org/2000/svg" xmlns="http://www.w3.org/2000/svg" xmlns:sodipodi="http://sodipodi.sourceforge.net/DTD/sodipodi-0.dtd" xmlns:inkscape="http://www.inkscape.org/namespaces/inkscape" width="38.731625mm" height="38.731625mm" viewBox="0 0 38.731625 38.731625" version="1.1" id="svg2017" inkscape:version="0.92.3 (2405546, 2018-03-11)" sodipodi:docname="bc-allschwil-klub-mitglieder.svg">
  <defs id="defs2011"/>
  <sodipodi:namedview id="base" pagecolor="#ffffff" bordercolor="#666666" borderopacity="1.0" inkscape:pageopacity="0.0" inkscape:pageshadow="2" inkscape:zoom="0.35" inkscape:cx="104.12526" inkscape:cy="-71.847707" inkscape:document-units="mm" inkscape:current-layer="layer1" showgrid="false" fit-margin-top="0" fit-margin-left="0" fit-margin-right="0" fit-margin-bottom="0" inkscape:window-width="960" inkscape:window-height="1061" inkscape:window-x="960" inkscape:window-y="0" inkscape:window-maximized="0"/>
  <metadata id="metadata2014">
    <rdf:RDF>
      <cc:Work rdf:about="">
        <dc:format>image/svg+xml</dc:format>
        <dc:type rdf:resource="http://purl.org/dc/dcmitype/StillImage"/>
        <dc:title/>
      </cc:Work>
    </rdf:RDF>
  </metadata>
  <g inkscape:label="Layer 1" inkscape:groupmode="layer" id="layer1" transform="translate(19.543856,-121.33009)">
    <circle style="fill:none;fill-opacity:1;stroke:#ff7f2aff;stroke-width:0.7836653;stroke-miterlimit:4;stroke-dasharray:none;stroke-opacity:1" id="circle3115" cx="-0.17804334" cy="140.69591" r="18.97398"/>
    <g id="g3181" transform="matrix(0.0946514,0,0,0.09668197,113.53854,-68.813256)" style="fill:#ff7f2aff;fill-opacity:1">
      <g transform="matrix(0.30132189,0,0,0.30132189,-837.88256,1630.3693)" id="g3164" style="fill:#ff7f2aff;fill-opacity:1">
        <path inkscape:connector-curvature="0" style="fill:#ff7f2aff;fill-opacity:1" d="m -1204.6777,1700.3496 c -14.6123,-0.057 -29.4558,2.7721 -43.5996,8.6602 -28.428,11.8346 -51.23,38.7538 -62.7481,74.08 -7.6825,23.5623 -10.2522,42.9749 -10.6562,80.5 -0.4302,39.9705 -1.6433,52.8436 -7.1153,75.459 -7.3006,30.1725 -22.5223,55.6852 -38.1621,63.9649 -1.2845,0.68 -2.1846,1.3304 -2,1.4433 0.1847,0.113 6.7494,-0.037 14.5879,-0.332 7.8386,-0.2954 14.25,-0.4602 14.25,-0.3672 -10e-4,0.093 -3.7996,2.2393 -8.4414,4.7695 -25.8684,14.1009 -47.6515,36.7979 -60.5254,63.0625 -11.1062,22.6582 -14.515,37.5831 -14.5,63.5 0.011,20.0304 0.9979,25.8766 6.2383,37 3.2018,6.7962 11.9013,16.0934 18.6953,19.9805 6.2326,3.566 20.5739,7.7532 30.0313,8.7676 11.8077,1.2666 326.1378,0.6555 332.5,-0.6465 27.5291,-5.6335 40.58182,-16.6031 47.16402,-39.6367 1.9633,-6.8705 2.27906,-10.3008 2.28906,-24.9649 0.0138,-19.3018 -1.40781,-28.4497 -7.07031,-45.5 -12.15617,-36.6041 -38.58657,-66.8174 -73.38277,-83.8847 -6.325,-3.1024 -12.85,-6.1722 -14.5,-6.8223 -2.77,-1.0913 -2.6167,-1.141 2,-0.6465 2.75,0.2946 11.9305,1.6269 20.4003,2.961 8.4697,1.3341 15.5649,2.2593 15.7676,2.0566 0.2027,-0.2026 -1.4281,-1.6117 -3.623,-3.1328 -15.6843,-10.8692 -29.135,-35.9583 -35.9766,-67.1016 -4.1468,-18.8766 -5.2565,-31.7385 -5.5586,-64.4297 -0.3049,-33.0019 -1.5798,-48.1103 -5.6445,-66.9062 -6.3243,-29.2445 -18.7236,-53.9105 -35.7793,-71.1699 -19.6958,-19.9312 -46.7445,-30.5558 -74.6406,-30.6641 z m 59.3086,97.8692 2.5273,4.6855 c 5.3706,9.951 7.2476,22.6124 4.3672,29.4668 -0.7437,1.7699 -2.8413,4.6664 -4.6602,6.4375 -2.3723,2.31 -2.9074,3.3474 -1.8964,3.6699 0.7751,0.2473 9.2641,1.4043 18.8652,2.5703 9.6011,1.166 17.6661,2.3302 17.9219,2.586 0.7844,0.7844 -1.9382,25.3342 -4.043,36.455 -2.7734,14.6536 -8.9074,32.893 -15.2754,45.4258 -13.9849,27.5236 -34.4093,46.9207 -57.0605,54.1914 -15.8549,5.0893 -33.8832,3.961 -49.1055,-3.0722 -34.8408,-16.0974 -59.5017,-56.9496 -66.8613,-110.7618 -0.5963,-4.3601 -0.4717,-4.7551 1.6601,-5.207 1.2685,-0.2689 7.9317,-1.6476 14.8067,-3.0644 45.2744,-9.33 81.4772,-25.0495 125.4042,-54.4493 z m -120.461,180.2441 c 0.1375,-0.1375 3.6154,2.4329 7.7285,5.7129 9.1909,7.3293 22.0216,14.0731 32.5469,17.1054 10.2593,2.9557 29.3986,3.1535 39.4317,0.4083 12.5563,-3.4355 26.4411,-10.9554 36.3769,-19.7012 2.5428,-2.2383 4.6231,-3.7977 4.6231,-3.4668 0,0.3309 -2.475,5.5366 -5.5,11.5683 -3.025,6.0317 -5.5,11.2091 -5.5,11.5059 0,0.2968 1.0125,-0.1239 2.25,-0.9336 3.7565,-2.4579 12.8553,-4.3462 24.5996,-5.1074 10.5053,-0.6808 11.1499,-0.6137 11.1289,1.1562 -0.065,5.5849 -7.5428,16.1115 -16.0039,22.5293 -6.9043,5.2369 -21.3751,12.15 -30.4043,14.5254 -8.018,2.1093 -5.4876,-1.081 -27.0703,34.1153 -7.15,11.66 -13.2837,21.2031 -13.6309,21.2031 -0.3472,0 -7.9972,-11.9896 -17,-26.6485 l -16.3691,-26.6523 -7,-1.8828 c -11.834,-3.1835 -28.229,-11.8037 -35.1387,-18.4766 -3.3228,-3.2088 -6.579,-6.8465 -7.2363,-8.084 -1.0762,-2.0259 -0.9677,-2.246 1.0898,-2.246 3.8255,0.01 19.9675,2.8423 25.3887,4.4609 2.8068,0.838 6.6927,2.602 8.6347,3.9199 l 3.5313,2.3965 -8.3633,-18.5801 c -4.5993,-10.2187 -8.2508,-18.6906 -8.1133,-18.8281 z" id="path3139"/>
        <g id="g3148" transform="matrix(0.77380148,0,0,0.77380148,-167.81211,445.65465)" style="fill:#ff7f2aff;fill-opacity:1">
          <path id="path3141" d="m -1893.6227,2201.4149 c -13.4239,-1.1338 -30.5816,-3.759 -38.6531,-5.9141 -28.0459,-7.4885 -44.5659,-23.3529 -51.0763,-49.0492 -3.1882,-12.5839 -3.1588,-40.0334 0.059,-55.0511 12.6915,-59.231 56.4544,-103.2259 115.6703,-116.2837 12.016,-2.6497 16.5,-2.6675 16.5,-0.065 0,4.5839 4.2647,12.9891 9.5588,18.8393 15.7023,17.3516 44.8093,27.1902 80.4412,27.1902 24.2589,0 43.0325,-3.8976 60.7075,-12.6036 15.4619,-7.6158 27.1211,-20.2107 28.8776,-31.1953 0.6449,-4.033 0.8089,-4.1925 4.2927,-4.1774 1.9922,0.01 7.7596,0.889 12.8165,1.9565 69.1533,14.5982 118.408,75.0418 118.2859,145.1561 -0.037,21.2452 -3.6793,35.7689 -12.1442,48.4249 -12.9609,19.3782 -35.8608,28.9806 -77.336,32.4286 -10.8666,0.9033 -257.6265,1.2203 -268,0.3442 z" style="fill:#ff7f2aff;fill-opacity:1" inkscape:connector-curvature="0"/>
          <path id="path3133" d="m -1761.9941,1700.4512 c -21.8434,0.2801 -45.0764,7.7602 -62.6289,20.5488 -34.6733,25.2627 -53.1322,66.4918 -49.4668,110.4824 4.2383,50.8648 17.2191,86.8468 42.3925,117.5059 12.9673,15.793 33.9902,29.5466 52.0743,34.0683 9.768,2.4424 29.3927,2.2572 39,-0.3691 14.1916,-3.8795 33.3971,-15.6039 44.6679,-27.2676 18.8534,-19.5107 35.0942,-51.65 42.2735,-83.6601 3.8418,-17.1294 6.8491,-45.0074 6.1679,-57.1836 -3.3717,-60.2771 -45.4744,-106.894 -102.5332,-113.5274 -3.9048,-0.4539 -7.9022,-0.6495 -11.9472,-0.5976 z m 71.3496,73.9531 c 0.861,0.014 1.5304,0.3022 2.4082,0.7949 3.3372,1.8731 7.8181,9.2049 9.7695,15.9883 2.087,7.2545 2.9205,34.8909 1.4336,47.498 -0.6282,5.3271 -0.9999,9.8263 -0.8281,9.9981 0.1719,0.1718 2.9461,-1.0164 6.166,-2.6406 8.6709,-4.3737 8.977,-4.2314 8.1699,3.7968 -0.3732,3.7125 -1.8251,11.8882 -3.2266,18.17 -11.2158,50.2723 -41.0702,88.1804 -76.871,97.6074 -3.3,0.8689 -10.05,1.7677 -15,1.998 -38.548,1.7938 -74.4633,-30.1551 -91.5293,-81.4218 -4.0051,-12.0315 -7.5296,-27.6008 -8.627,-38.0996 l -0.6348,-6.0665 2.584,0.9825 c 1.4207,0.5401 4.9239,2.1691 7.7852,3.6191 l 5.2011,2.6348 -0.6445,-4.8379 c -0.3545,-2.6608 -0.9302,-11.8383 -1.2812,-20.3965 -0.9982,-24.3415 1.8954,-38.7712 9.3066,-46.4023 4.154,-4.2772 3.7715,-4.2957 17.1484,0.8906 27.0307,10.4799 54.6429,13.9827 79.1915,10.0488 12.3892,-1.9853 31.0239,-7.1811 41.7128,-11.6309 4.3625,-1.8161 6.3305,-2.5538 7.7657,-2.5312 z" style="fill:#ff7f2aff;fill-opacity:1" inkscape:connector-curvature="0"/>
        </g>
        <g transform="matrix(0.77380148,0,0,0.77380148,481.34043,445.65465)" id="g3155" style="fill:#ff7f2aff;fill-opacity:1">
          <path inkscape:connector-curvature="0" style="fill:#ff7f2aff;fill-opacity:1" d="m -1893.6227,2201.4149 c -13.4239,-1.1338 -30.5816,-3.759 -38.6531,-5.9141 -28.0459,-7.4885 -44.5659,-23.3529 -51.0763,-49.0492 -3.1882,-12.5839 -3.1588,-40.0334 0.059,-55.0511 12.6915,-59.231 56.4544,-103.2259 115.6703,-116.2837 12.016,-2.6497 16.5,-2.6675 16.5,-0.065 0,4.5839 4.2647,12.9891 9.5588,18.8393 15.7023,17.3516 44.8093,27.1902 80.4412,27.1902 24.2589,0 43.0325,-3.8976 60.7075,-12.6036 15.4619,-7.6158 27.1211,-20.2107 28.8776,-31.1953 0.6449,-4.033 0.8089,-4.1925 4.2927,-4.1774 1.9922,0.01 7.7596,0.889 12.8165,1.9565 69.1533,14.5982 118.408,75.0418 118.2859,145.1561 -0.037,21.2452 -3.6793,35.7689 -12.1442,48.4249 -12.9609,19.3782 -35.8608,28.9806 -77.336,32.4286 -10.8666,0.9033 -257.6265,1.2203 -268,0.3442 z" id="path3151"/>
          <path inkscape:connector-curvature="0" style="fill:#ff7f2aff;fill-opacity:1" d="m -1761.9941,1700.4512 c -21.8434,0.2801 -45.0764,7.7602 -62.6289,20.5488 -34.6733,25.2627 -53.1322,66.4918 -49.4668,110.4824 4.2383,50.8648 17.2191,86.8468 42.3925,117.5059 12.9673,15.793 33.9902,29.5466 52.0743,34.0683 9.768,2.4424 29.3927,2.2572 39,-0.3691 14.1916,-3.8795 33.3971,-15.6039 44.6679,-27.2676 18.8534,-19.5107 35.0942,-51.65 42.2735,-83.6601 3.8418,-17.1294 6.8491,-45.0074 6.1679,-57.1836 -3.3717,-60.2771 -45.4744,-106.894 -102.5332,-113.5274 -3.9048,-0.4539 -7.9022,-0.6495 -11.9472,-0.5976 z m 71.3496,73.9531 c 0.861,0.014 1.5304,0.3022 2.4082,0.7949 3.3372,1.8731 7.8181,9.2049 9.7695,15.9883 2.087,7.2545 2.9205,34.8909 1.4336,47.498 -0.6282,5.3271 -0.9999,9.8263 -0.8281,9.9981 0.1719,0.1718 2.9461,-1.0164 6.166,-2.6406 8.6709,-4.3737 8.977,-4.2314 8.1699,3.7968 -0.3732,3.7125 -1.8251,11.8882 -3.2266,18.17 -11.2158,50.2723 -41.0702,88.1804 -76.871,97.6074 -3.3,0.8689 -10.05,1.7677 -15,1.998 -38.548,1.7938 -74.4633,-30.1551 -91.5293,-81.4218 -4.0051,-12.0315 -7.5296,-27.6008 -8.627,-38.0996 l -0.6348,-6.0665 2.584,0.9825 c 1.4207,0.5401 4.9239,2.1691 7.7852,3.6191 l 5.2011,2.6348 -0.6445,-4.8379 c -0.3545,-2.6608 -0.9302,-11.8383 -1.2812,-20.3965 -0.9982,-24.3415 1.8954,-38.7712 9.3066,-46.4023 4.154,-4.2772 3.7715,-4.2957 17.1484,0.8906 27.0307,10.4799 54.6429,13.9827 79.1915,10.0488 12.3892,-1.9853 31.0239,-7.1811 41.7128,-11.6309 4.3625,-1.8161 6.3305,-2.5538 7.7657,-2.5312 z" id="path3153"/>
        </g>
      </g>
      <path inkscape:connector-curvature="0" id="circle3166" d="m -1348.2632,2270.7536 a 185.51749,185.51749 0 0 0 147.0641,72.637 185.51749,185.51749 0 0 0 146.9367,-72.637 z" style="fill:#ff7f2aff;fill-opacity:1;stroke:none;stroke-width:7.66226101;stroke-miterlimit:4;stroke-dasharray:none;stroke-opacity:1"/>
    </g>
  </g>
</svg>