<svg xmlns:dc="http://purl.org/dc/elements/1.1/" xmlns:cc="http://creativecommons.org/ns#" xmlns:rdf="http://www.w3.org/1999/02/22-rdf-syntax-ns#" xmlns:svg="http://www.w3.org/2000/svg" xmlns="http://www.w3.org/2000/svg" xmlns:sodipodi="http://sodipodi.sourceforge.net/DTD/sodipodi-0.dtd" xmlns:inkscape="http://www.inkscape.org/namespaces/inkscape" width="38.731621mm" height="38.731621mm" viewBox="0 0 38.731621 38.731621" version="1.1" id="svg2017" inkscape:version="0.92.3 (2405546, 2018-03-11)" sodipodi:docname="bc-allschwil-klub-gruendungsjahr.svg">
  <defs id="defs2011"/>
  <sodipodi:namedview id="base" pagecolor="#ffffff" bordercolor="#666666" borderopacity="1.0" inkscape:pageopacity="0.0" inkscape:pageshadow="2" inkscape:zoom="0.35" inkscape:cx="-150.83338" inkscape:cy="10.33647" inkscape:document-units="mm" inkscape:current-layer="layer1" showgrid="false" fit-margin-top="0" fit-margin-left="0" fit-margin-right="0" fit-margin-bottom="0" inkscape:window-width="960" inkscape:window-height="1061" inkscape:window-x="960" inkscape:window-y="0" inkscape:window-maximized="0"/>
  <metadata id="metadata2014">
    <rdf:RDF>
      <cc:Work rdf:about="">
        <dc:format>image/svg+xml</dc:format>
        <dc:type rdf:resource="http://purl.org/dc/dcmitype/StillImage"/>
        <dc:title/>
      </cc:Work>
    </rdf:RDF>
  </metadata>
  <g inkscape:label="Layer 1" inkscape:groupmode="layer" id="layer1" transform="translate(-47.913951,-112.83657)">
    <g transform="translate(-78.69294,593.79964)" id="g2009">
      <path inkscape:connector-curvature="0" id="path2265" d="m 145.55106,-451.74865 c -0.48263,-0.0691 -0.84826,-0.21126 -1.1774,-0.45772 l -0.15051,-0.11269 h -6.06551 -6.0655 v -8.28291 c 0,-9.22053 -0.0281,-8.42491 0.30564,-8.66664 0.14662,-0.1062 0.37447,-0.19357 0.91789,-0.35195 l 0.10925,-0.0318 0.0219,-0.80059 0.0218,-0.8006 0.41513,-0.14215 c 1.47289,-0.50439 2.90771,-0.73303 4.58827,-0.73115 2.4306,0.003 4.45055,0.56405 6.24879,1.7364 0.37832,0.24665 0.53997,0.36389 1.02017,0.73984 l 0.16054,0.12569 0.31637,-0.25943 c 0.71139,-0.58334 1.76255,-1.19075 2.69791,-1.55898 1.41478,-0.55697 2.70668,-0.78493 4.43532,-0.78263 1.65193,0.002 3.21575,0.25651 4.63197,0.75325 l 0.34958,0.12261 0.0118,0.87043 0.0118,0.87042 0.31593,0.0944 c 0.38816,0.11602 0.57437,0.22807 0.6876,0.41378 0.0858,0.14078 0.0868,0.23735 0.087,8.41223 l 2.1e-4,8.26981 h -5.9177 -5.9177 l -0.12352,0.10338 c -0.42253,0.35363 -1.28193,0.56084 -1.93699,0.46703 z m 0.21743,-5.06037 -0.001,-3.179 -0.23757,0.26218 -0.23758,0.26219 -0.002,-4.77123 -0.002,-4.77122 -0.39254,-0.29773 c -0.70477,-0.53452 -1.44722,-0.96463 -2.18279,-1.26448 -2.31399,-0.94328 -5.07201,-1.05345 -7.86844,-0.31431 -0.27639,0.0731 -0.53694,0.151 -0.579,0.1732 -0.0724,0.0382 -0.0765,0.46315 -0.0765,7.98454 0,4.3693 0.0119,7.95602 0.0263,7.97051 0.0145,0.0145 0.1868,-0.0303 0.38292,-0.0996 0.95057,-0.3355 1.76838,-0.44921 3.26137,-0.45349 1.16358,-0.003 1.93987,0.0575 2.73112,0.21414 0.16823,0.0333 0.4337,0.0824 0.58992,0.10915 0.99471,0.17019 2.85619,0.70485 4.02019,1.15467 0.27639,0.1068 0.51728,0.19538 0.5353,0.19683 0.018,0.001 0.0323,-1.42793 0.0317,-3.17639 z m -2.46786,0.16883 c -0.66061,-0.30836 -1.6146,-0.62105 -2.46893,-0.80921 -1.414,-0.31143 -3.29395,-0.32256 -4.52891,-0.0268 -0.18887,0.0452 -0.35547,0.0688 -0.37023,0.0524 -0.0148,-0.0164 -0.0488,-0.12066 -0.0757,-0.23172 -0.0269,-0.11107 -0.0601,-0.23113 -0.0738,-0.2668 -0.0279,-0.0727 0.11275,-0.11821 0.70064,-0.22689 1.34639,-0.2489 2.57614,-0.25612 3.94545,-0.0232 0.61448,0.10456 0.91884,0.17686 1.58232,0.37589 0.76158,0.22847 1.92426,0.69819 1.9895,0.80376 0.0294,0.0475 -0.25047,0.52304 -0.30542,0.51902 -0.025,-0.002 -0.20272,-0.0768 -0.39499,-0.16651 z m 0.18504,-1.6884 c -0.87913,-0.42621 -2.20897,-0.83604 -3.24389,-0.99971 -1.38192,-0.21855 -2.43914,-0.20597 -3.72819,0.0443 -0.32007,0.0622 -0.58749,0.10614 -0.59427,0.0978 -0.0359,-0.0445 -0.14279,-0.56484 -0.11901,-0.57946 0.0154,-0.009 0.27379,-0.0674 0.57421,-0.12881 2.08063,-0.42508 4.55292,-0.16876 6.68051,0.6926 0.40503,0.16397 0.90355,0.39102 0.95552,0.43518 0.0159,0.0136 -0.25176,0.50006 -0.2867,0.52106 -0.0165,0.01 -0.12365,-0.0274 -0.23818,-0.083 z m 0.0322,-1.7413 c -0.0923,-0.0643 -0.55321,-0.25909 -1.04268,-0.44071 -0.44661,-0.16572 -1.30033,-0.40304 -1.79647,-0.4994 -0.91738,-0.17818 -1.13464,-0.19772 -2.20674,-0.19848 -1.04994,-10e-4 -1.42889,0.0315 -2.03195,0.17315 -0.51252,0.12035 -0.50402,0.12302 -0.59242,-0.18677 -0.0428,-0.14999 -0.0647,-0.28084 -0.0486,-0.29077 0.0884,-0.0546 0.63123,-0.16915 1.18722,-0.25063 1.59593,-0.23384 3.5024,-0.0554 5.17819,0.48458 0.91765,0.29571 1.88375,0.70134 1.84987,0.77671 -0.008,0.0184 -0.0693,0.13674 -0.13571,0.26292 -0.12663,0.24075 -0.20523,0.27767 -0.36073,0.1694 z m -0.17359,-1.80157 c -0.67525,-0.3356 -1.90622,-0.71726 -2.9496,-0.91455 -1.1398,-0.21552 -2.90774,-0.2046 -3.9328,0.0243 -0.20429,0.0456 -0.40838,0.0886 -0.45354,0.0955 -0.0668,0.0103 -0.097,-0.0402 -0.16233,-0.27143 -0.0441,-0.15622 -0.0809,-0.2882 -0.0818,-0.29328 -0.009,-0.0534 1.13082,-0.25229 1.84352,-0.32173 1.79503,-0.17489 4.13546,0.25334 5.9987,1.09757 0.44553,0.20186 0.4365,0.18613 0.27775,0.48397 -0.0753,0.14136 -0.15882,0.2558 -0.18552,0.25433 -0.0267,-10e-4 -0.18618,-0.0711 -0.35442,-0.15469 z m 0.0525,-1.83485 c -0.55,-0.28623 -1.94051,-0.72979 -2.78359,-0.88795 -0.93967,-0.17628 -1.15864,-0.19589 -2.16304,-0.19374 -1.00632,0.002 -1.34509,0.0353 -2.15887,0.21126 -0.17795,0.0385 -0.3386,0.0543 -0.357,0.0352 -0.0184,-0.0191 -0.063,-0.14904 -0.0991,-0.28873 -0.0488,-0.18904 -0.0525,-0.25837 -0.0144,-0.27124 0.834,-0.28197 2.65818,-0.4026 3.94265,-0.26072 1.29283,0.14279 2.69984,0.53106 3.81834,1.05369 0.22675,0.10595 0.4184,0.19876 0.42589,0.20625 0.007,0.007 -0.0468,0.12511 -0.1206,0.26139 -0.0827,0.15269 -0.1623,0.24701 -0.2074,0.24576 -0.0402,-10e-4 -0.16756,-0.0512 -0.2829,-0.11118 z m -0.0198,-1.69798 c -0.93867,-0.44985 -2.26289,-0.82923 -3.5163,-1.00741 -0.96007,-0.13647 -2.62457,-0.0746 -3.49154,0.12975 -0.44627,0.1052 -0.44526,0.10559 -0.52677,-0.20613 -0.0393,-0.15021 -0.0651,-0.2796 -0.0575,-0.28752 0.04,-0.0414 0.72246,-0.18647 1.20135,-0.25535 0.74086,-0.10654 2.28962,-0.10566 3.05504,0.002 0.57157,0.0802 1.5161,0.28515 1.83853,0.39891 0.10517,0.0371 0.31055,0.0983 0.45641,0.13606 0.14586,0.0377 0.28486,0.0832 0.30889,0.10101 0.024,0.0178 0.17151,0.0774 0.32773,0.13239 0.23028,0.081 0.98951,0.41766 1.03964,0.46092 0.0184,0.0159 -0.27046,0.54472 -0.29801,0.54558 -0.0127,10e-4 -0.16457,-0.0671 -0.3375,-0.14995 z m 0.0547,-1.77592 c -0.72356,-0.33745 -1.67351,-0.65518 -2.51796,-0.84218 -0.88991,-0.19708 -1.47953,-0.26049 -2.44174,-0.2626 -0.90394,-0.002 -1.2826,0.0343 -2.03195,0.19479 -0.2163,0.0463 -0.42393,0.0841 -0.46138,0.0839 -0.0477,0 -0.0886,-0.0859 -0.13628,-0.2853 -0.0375,-0.15676 -0.0548,-0.29328 -0.0384,-0.30338 0.0327,-0.0202 0.71186,-0.15806 1.22603,-0.24882 0.43895,-0.0775 2.46893,-0.0765 2.9496,10e-4 1.49938,0.24314 2.5707,0.55746 3.70339,1.08655 0.18626,0.087 0.33866,0.16478 0.33866,0.17282 0,0.0313 -0.27215,0.49487 -0.29913,0.50948 -0.0157,0.009 -0.14659,-0.0395 -0.29079,-0.10678 z m 3.30152,13.26497 c 0.228,-0.11791 2.06868,-0.71253 2.68508,-0.86741 0.80739,-0.20287 1.81799,-0.39464 2.60002,-0.4934 0.77703,-0.0981 2.438,-0.10918 3.18994,-0.0212 0.57757,0.0675 1.58935,0.29916 2.02202,0.46287 0.16278,0.0616 0.30534,0.11198 0.31681,0.11198 0.0115,0 0.0208,-3.59719 0.0208,-7.99375 0,-7.5753 -0.004,-7.99495 -0.0765,-8.01652 -0.8724,-0.25967 -2.02302,-0.48765 -2.89018,-0.57266 -2.25986,-0.22155 -4.45469,0.15196 -6.22699,1.05968 -0.63196,0.32367 -1.4718,0.87716 -1.82279,1.20129 -0.0803,0.0742 -0.0828,0.21982 -0.0828,4.80512 v 4.72864 l -0.21849,-0.2152 -0.21849,-0.21521 v 3.15357 3.15357 l 0.28934,-0.10891 c 0.15914,-0.0599 0.34461,-0.13748 0.41216,-0.17242 z m 1.35523,-2.76015 c -0.0741,-0.1368 -0.11981,-0.26335 -0.1016,-0.28123 0.0648,-0.0636 0.60156,-0.31302 0.99155,-0.46075 0.95277,-0.3609 1.94091,-0.61988 2.90883,-0.76238 0.95844,-0.14109 2.24902,-0.14113 3.14624,0 0.60613,0.0953 1.08134,0.1981 1.12711,0.24387 0.0279,0.0279 -0.0817,0.5449 -0.12072,0.569 -0.0164,0.0102 -0.15619,-0.0117 -0.31057,-0.0486 -1.22474,-0.29243 -3.01427,-0.30672 -4.36644,-0.0349 -0.90794,0.18253 -1.9849,0.5229 -2.70445,0.8547 -0.20164,0.093 -0.38205,0.16906 -0.40092,0.16906 -0.0189,0 -0.0949,-0.11194 -0.16903,-0.24874 z m 0.008,-1.7588 c -0.0781,-0.14221 -0.14201,-0.26793 -0.14201,-0.27939 0,-0.0587 1.28684,-0.58747 1.8353,-0.75418 0.84299,-0.25624 1.01112,-0.29436 2.22859,-0.50529 0.44467,-0.077 2.48292,-0.077 2.92776,-3e-5 0.42916,0.0743 1.19724,0.23247 1.21793,0.25079 0.009,0.008 -0.008,0.14307 -0.0377,0.30037 -0.0596,0.31572 -0.0859,0.33181 -0.39394,0.24101 -0.28928,-0.0853 -1.24649,-0.20975 -1.83502,-0.23864 -1.63788,-0.0804 -3.64275,0.3312 -5.30676,1.0895 -0.18764,0.0855 -0.34363,0.15524 -0.34664,0.15497 -0.003,-0.001 -0.0694,-0.11689 -0.14749,-0.25911 z m -0.007,-1.77167 c -0.0744,-0.13181 -0.13527,-0.25114 -0.13527,-0.26517 0,-0.0846 1.32817,-0.61101 2.18895,-0.86753 1.77614,-0.52928 3.96432,-0.62274 5.62048,-0.24004 0.27964,0.0646 0.40576,0.11324 0.40576,0.15643 0,0.091 -0.0946,0.46768 -0.12611,0.50214 -0.0148,0.0161 -0.2628,-0.0172 -0.55121,-0.0741 -1.68886,-0.33332 -3.50854,-0.23032 -5.26558,0.29806 -0.6901,0.20754 -1.17561,0.38631 -1.61682,0.59532 -0.15622,0.074 -0.30674,0.13457 -0.33449,0.13459 -0.0277,2e-5 -0.11132,-0.10782 -0.18571,-0.23965 z m 2e-4,-1.72489 -0.1355,-0.26036 0.18954,-0.11107 c 0.10426,-0.0611 0.20198,-0.11107 0.21719,-0.11107 0.0152,0 0.13145,-0.0459 0.25834,-0.10207 0.60934,-0.26957 1.55193,-0.57086 2.32821,-0.7442 1.57854,-0.35246 3.45472,-0.36123 4.87813,-0.0227 l 0.37726,0.0897 -0.0624,0.24763 c -0.0343,0.13619 -0.0698,0.26988 -0.0789,0.29708 -0.0117,0.0349 -0.16238,0.0194 -0.5115,-0.0524 -0.75133,-0.15456 -1.16151,-0.19376 -2.02324,-0.19337 -1.16235,10e-4 -1.96752,0.11038 -3.10369,0.42343 -0.70332,0.19379 -1.46496,0.4712 -1.91032,0.69582 -0.11336,0.0572 -0.22444,0.10394 -0.24684,0.10394 -0.0224,0 -0.1017,-0.11717 -0.17622,-0.26036 z m -0.003,-1.86341 c -0.076,-0.13461 -0.13065,-0.25224 -0.12149,-0.26139 0.0572,-0.0572 0.92202,-0.42977 1.34372,-0.57894 1.15787,-0.40954 2.10387,-0.6213 3.16685,-0.7089 0.70333,-0.058 1.89825,-0.0363 2.49202,0.0451 0.32652,0.0448 1.16005,0.21597 1.19593,0.24561 0.009,0.007 -0.01,0.14372 -0.0415,0.30313 -0.0548,0.27558 -0.0631,0.28885 -0.16904,0.26998 -0.0613,-0.0109 -0.40638,-0.0745 -0.76688,-0.14126 -0.58666,-0.10867 -0.75869,-0.12176 -1.63867,-0.12472 -0.82207,-0.003 -1.08705,0.0131 -1.61682,0.0967 -1.17524,0.18543 -2.61301,0.60943 -3.3742,0.99504 -0.11337,0.0574 -0.23439,0.10442 -0.26894,0.10442 -0.0346,0 -0.12499,-0.11014 -0.20096,-0.24476 z m 0.006,-1.68205 c -0.0801,-0.14589 -0.13914,-0.27177 -0.13109,-0.27973 0.008,-0.008 0.18176,-0.0919 0.38605,-0.18647 1.07912,-0.49968 2.57413,-0.92075 3.77986,-1.06461 1.0345,-0.12342 2.7777,-0.0494 3.59416,0.15267 0.13819,0.0342 0.30271,0.0738 0.36561,0.088 l 0.11435,0.0258 -0.0681,0.28466 c -0.0775,0.32391 -0.0629,0.3178 -0.52614,0.22036 -1.24343,-0.26157 -2.67897,-0.28488 -3.91686,-0.0636 -1.14118,0.204 -2.19184,0.52407 -3.13435,0.95488 -0.16171,0.0739 -0.29935,0.13415 -0.30589,0.13386 -0.007,-10e-4 -0.0775,-0.11987 -0.1576,-0.26577 z m 0.004,-1.78493 c -0.0781,-0.14221 -0.14202,-0.26533 -0.14202,-0.27358 0,-0.0216 0.24302,-0.14464 0.54623,-0.27653 1.60086,-0.69635 3.33449,-1.06928 4.97068,-1.06928 0.3804,0 0.88258,0.0207 1.11596,0.0461 0.36206,0.0393 1.41814,0.22734 1.56367,0.27837 0.0321,0.0113 0.0252,0.10755 -0.0219,0.3046 -0.0797,0.33403 -0.0633,0.32831 -0.58714,0.20471 -0.88012,-0.20768 -2.27082,-0.2572 -3.37071,-0.12001 -1.164,0.14518 -2.55229,0.53599 -3.57775,1.00715 -0.18926,0.087 -0.34657,0.15787 -0.34958,0.15758 -0.003,-0.001 -0.0694,-0.11687 -0.14749,-0.25909 z" style="fill:#ff7f2aff;fill-opacity:1;stroke-width:0.04369781"/>
      <circle r="18.973978" cy="-461.59726" cx="145.9727" id="path2291" style="fill:none;fill-opacity:1;stroke:#ff7f2aff;stroke-width:0.78366518;stroke-miterlimit:4;stroke-dasharray:none;stroke-opacity:1"/>
    </g>
  </g>
</svg>