<svg xmlns="http://www.w3.org/2000/svg" viewBox="0 0 216.29 263.65"><defs><style>.cls-1{fill:#fff;}.cls-2,.cls-4{fill:#2e3382;}.cls-3,.cls-5{fill:#d72027;}.cls-4,.cls-5,.cls-6{fill-rule:evenodd;}.cls-6{fill:#c33;}</style></defs><title>vertical-elite</title><g id="Layer_2" data-name="Layer 2"><g id="Layer_1-2" data-name="Layer 1"><path class="cls-1" d="M10.44,245.51,13,248.1V253l-1.39,1.41,1.41,1.4v5.29l-2.58,2.59H0v-4.32H1.13v-9.5H0v-4.32ZM.35,249.56H1.41V259.7h-1v3.65h10L12.72,261v-5l-1.54-1.55,1.52-1.52v-4.62l-2.35-2.43H.39Zm12,3.12-1.68,1.69,1.7,1.68v4.74L10.21,263H.76v-2.89h1V249.16H.72v-2.92h9.45l2.16,2.18Zm-7.52.43H8.71l.64-.61v-2.71l-.64-.63H4.83Zm0,7H8.71l.63-.64v-2.92l-.65-.61H4.81Zm.34-10.53H8.49l.41.42v2.34l-.41.43H5.17Zm0,6.72H8.51l.43.42v2.58l-.43.43H5.24Zm.31-3.88H8.37l.22-.24v-2.09l-.23-.23H5.52Zm0,6.93h2.9l.25-.24v-2.3l-.25-.24H5.55Z"/><path class="cls-1" d="M25.63,245.47v4.32H25.3l2.09,9.47h1.29v4.31H22.33v-4.28h.37l-.07-.29H20.4v.29h.3v4.31H14.35v-4.3h1.29l2-9.48h-.36V245.5Zm-8,4H18L15.9,259.64H14.7v3.63h5.67v-3.63h-.45l.2-.95h2.79l.19.95h-.45v3.65h5.68v-3.64H27.17l-2.23-10.14h.4v-3.65H17.66ZM28,260v2.91H23V260h.52l-.28-1.67H19.82l-.33,1.78H20V263H15.07v-2.91h1.14l2.26-10.9H18v-2.91h7v2.93h-.52l2.41,10.86Zm-5.29-4.15L21.47,250l-1.15,5.81Zm-1.22-4,.78,3.61H20.76Zm.35,3.26-.33-1.59-.33,1.59Z"/><path class="cls-1" d="M41.89,248.05v3.1H37.42v-1.23l-.2-.2H34.63l-.21.2v2.22l.21.22h4.66l2.58,2.58v6l-2.58,2.59H32.47l-2.59-2.59v-3.16h4.47V259l.22.21h2.58l.22-.21v-2.23l-.22-.21H32.52l-2.66-2.65v-5.82l2.58-2.68h6.69Zm-9.17-2.21-2.46,2.47v5.55l2.47,2.45h4.6l.43.4v2.51l-.41.42H34.51l-.42-.39v-1H30.3v2.72l2.38,2.37h6.56L41.58,261v-5.72l-2.44-2.43H34.49l-.42-.4v-2.49l.42-.41h2.87l.43.39v1h3.79v-2.59l-2.44-2.45Zm5.42,4.69v-.81l-.64-.64H34.32l-.69.64v2.76l.65.64h4.63l2.24,2.2v5.4L39,262.87H32.77l-2.18-2.16v-2.2h3.07v.8l.63.64h3.22l.63-.65v-2.79l-.64-.64H32.87l-2.21-2.27v-5.24l2.21-2.24H39l2.25,2.22v2.13Z"/><path class="cls-1" d="M57.88,249.6H56.05l-3,3.71,3.08,5.82H58v4.32H50.3v-4.32h1l-1.17-2.27-.64.8v1.49h.35v4.32H43.91v-4.32H45v-9.51H43.91v-4.32h6v4.33h-.44v1.5l1.2-1.5H50.2v-4.33h7.68Zm-7.35-4v3.66h.77l-2.23,2.78v-2.76h.37v-3.67H44.16v3.67h1.12V259.5H44.15v3.67h5.29V259.5h-.28v-1.92l1-1.29,1.66,3.18H50.64v3.66h7v-3.67H55.9l-3.29-6.2,3.27-4h1.65V245.6Zm1.63,7.58,3.47,6.61h1.56v2.91H50.93v-2.91h1.44l-2.19-4.24-1.44,1.89v2.42h.42v2.92H44.6V259.9h1.13V249H44.6v-2.91h4.56V249h-.38v4.18L52.15,249H51V246h6.26V249H55.69Z"/><path class="cls-1" d="M72.51,250.71h-4.3v-1.12H65.69v2.58h3.88v4.18H65.69v2.76h2.52V258h4.31v5.46H60.11v-4.32h1.13v-9.48H60.1v-4.33H72.51ZM60.4,245.64v3.66h1.12v10.13H60.39v3.68H72.13v-4.78H68.56v1.1H65.38V256h3.88V252.5H65.38v-3.21h3.18v1.14h3.65v-4.8Zm11.41.32v4h-2.9v-1.12H65v4h3.88v2.79H65v4.16h3.88v-1.12h2.91v4h-11v-2.89h1.12V248.93H60.8V246Z"/><path class="cls-1" d="M87.87,245.18v5.45H83.58V249.5h-.26V259h1.14v4.33H77.73V259h1.18v-9.47h-.26v1.13H74.29v-5.44Zm-13.25,5.17h3.64v-1.13h.95v10.12H78.07V263h6.05v-3.66H83.05V249.22H84v1.13h3.63v-4.8l-12.94.07Zm12.57-.41H84.28v-1.13H82.62v10.88h1.13v3H78.44v-2.91h1.14V248.86H77.9V250H75v-4.05H87.24Z"/><path class="cls-1" d="M99.8,245.1l2.59,2.59v4.86L101,254l1.42,1.4v5.29l-2.59,2.59H89.38v-4.32h1.17v-9.5H89.39v-4.32Zm-10.08,4.05h1v10.14H89.71v3.65h10l2.36-2.38v-5L100.49,254l1.51-1.53v-4.62l-2.38-2.35h-10Zm12,3.15L100,254l1.71,1.68v4.73l-2.13,2.14H90.15v-2.87h1V248.77h-1v-2.93h9.46l2.17,2.14Zm-7.52.43h3.88l.64-.61v-2.7l-.64-.64H94.2Zm0,7h3.88l.64-.63v-2.93l-.64-.61H94.2Zm.32-10.53h3.29l.43.43V252l-.43.43H94.58Zm0,6.73h3.3l.43.41v2.59l-.41.42H94.61Zm.31-3.88h2.85l.21-.24v-2.05l-.24-.25H94.89Zm0,6.93h2.82l.24-.25v-2.3l-.24-.23H94.92Z"/><path class="cls-1" d="M115.25,245.06v4.32h-.33l2.09,9.47h1.29v4.31H112v-4.3h.37v-.27H110l-.08.28h.39v4.31H104v-4.31h1.3l2-9.48H107v-4.32Zm-8,4h.4l-2.14,10.15H104.3v3.64H110v-3.65h-.44l.18-.94h2.8l.2.94h-.45v3.65H118v-3.64h-1.19l-2.24-10.14h.4v-3.65h-7.76Zm10.35,10.48v2.91h-4.94v-2.91h.52l-.34-1.68h-3.41l-.33,1.69h.53v2.91H104.7v-2.91h1.13l2.28-10.89h-.49v-2.83h7v2.92h-.53l2.35,10.79Zm-5.28-4.17-1.22-5.79L110,255.4Zm-1.21-4,.76,3.61h-1.49Zm.33,3.26-.33-1.59-.33,1.59Z"/><path class="cls-1" d="M132.35,257.65v5.44H120.47v-4.32h1.13V249.3h-1.17V245h6.71v4.34H126v9.48h2v-1.13Zm-6.62,1.48V249h1v-3.66h-6V249h1.14v10.13h-1.12v3.66h11.19V258h-3.59v1.13Zm3,.37h-3.36V248.62h1.1v-2.91h-5.29v2.91h1.12V259.5h-1.14v2.91h10.47v-4h-2.91Z"/><path class="cls-1" d="M146,257.58V263H134.15v-4.27h1.12V249.3h-1.14V245h6.71v4.34h-1.13v9.48h1.95v-1.13Zm-6.61,1.49V248.94h1.13v-3.67h-6v3.67h1.12v10.13h-1.08v3.66h11.18v-4.79H142v1.13Zm3,.36h-3.35V248.55h1.12v-2.92h-5.3v2.92H136v10.88h-1.13v2.91h10.46v-4h-2.91Z"/><path class="cls-1" d="M166.24,247.4V252h-4.41v-2.58l-.25-.24H159l-.25.22v9.06l.23.22h2.59l.23-.22V255.6h4.44v4.8L163.65,263h-6.79l-2.58-2.59V247.47l2.58-2.59h6.81ZM157,245.21l-2.37,2.38V260.3l2.39,2.35h6.47l2.37-2.4v-4.31h-3.78v2.59l-.43.42h-2.87l-.43-.42v-9.31l.43-.42h2.91l.43.42v2.42h3.78v-4.11l-2.39-2.35Zm5.52,6.08V249.1l-.64-.64H158.7l-.61.64v9.61l.65.63h3.17l.63-.63v-2.42h3v3.78l-2.17,2.17H157.2L155,260.09V247.7l2.14-2.18h6.21l2.2,2.15v3.6Z"/><path class="cls-1" d="M178.83,244.76v4.32h-.31l2.08,9.47h1.29v4.31h-6.35v-4.3h.39v-.28h-2.22l-.08.27H174v4.31h-6.35v-4.3H169l2-9.48h-.35V244.8Zm-8,4h.4l-2.13,10.16h-1.2v3.64h5.68v-3.64h-.46l.18-.95h2.81l.2.95h-.38v3.64h5.69v-3.64h-1.2l-2.23-10.15h.39v-3.64H170.9Zm10.35,10.48v2.92h-4.94v-2.91h.52l-.34-1.69H173l-.32,1.69h.51v2.91h-4.94v-2.91h1.19l2.28-10.89h-.51v-2.91h7v3h-.52l2.41,10.88Zm-5.25-4.15-1.22-5.81-1.15,5.82Zm-1.22-4,.78,3.62H174Zm.35,3.26-.33-1.59-.33,1.6Z"/><path class="cls-1" d="M201.88,249h-1.13v9.48h1.13v4.33h-6.47v-4.32h1.22v-4.89l-4,7.14-4.09-7.12v4.89h1.11v4.32h-6.47v-4.32h1.13V249h-1.13v-4.33h5l4.36,7.62,4.31-7.67h5ZM197,245l-4.5,8-4.55-8H183.5v3.66h1.12v10.13h-1.13v3.67h5.75v-3.67H188.1v-6.47l4.41,7.76,4.34-7.76v6.47h-1.1v3.66h5.76v-3.73h-1V248.64h1.12V245Zm3,3.27v10.88h1.13v2.91h-5v-2.91h1.12v-8.24l-4.72,8.36L187.81,251v8.25h1.12v2.93h-5v-2.93H185V248.38H183.9v-2.93h3.88l4.76,8.32,4.72-8.36h3.88v2.92Zm0,0v10.88h1.13v2.91h-5v-2.91h1.12v-8.24l-4.72,8.36L187.81,251v8.25h1.12v2.93h-5v-2.93H185V248.38H183.9v-2.93h3.88l4.76,8.32,4.72-8.36h3.88v2.92Z"/><path class="cls-1" d="M216.29,247.13v7.18l-2.59,2.59h-4.63v1.46h1.12v4.33H203.5v-4.32h1.12V248.9H203.5v-4.32h10.23Zm-12.48-2.2v3.67h1.12v10.12h-1.12v3.66h6v-3.66h-1.13v-2.11h4.84l2.37-2.4v-6.9l-2.38-2.38Zm11.78,2.5V254l-2.14,2.16h-5.06V259h1.17V262h-5.31V259h1.12V248.16h-1.12v-2.92h9.23Zm-7.19,5.88h3.53l.62-.63V248.8l-.63-.64H208.4Zm.34-4.73h3l.4.4v3.54l-.41.4h-3Zm.36,4h2.59l.2-.22v-3.26l-.22-.21h-2.58Z"/><path class="cls-2" d="M17.32,211.45l4.19,4.21v7.9l-2.29,2.29,2.29,2.29v8.64L17.32,241H.38v-7H2.1V218.48H.38v-7ZM.91,217.92H2.59v16.49H.91v5.91H17.09L21,236.44v-8.13l-2.48-2.51L21,223.31v-7.47L17.09,212H.91Zm19.46,5.17-2.75,2.76,2.75,2.74v7.67l-3.55,3.52H1.51v-4.73H3.2V217.38H1.51v-4.74H16.82l3.55,3.44Zm-12.21.66h6.22l1-1v-4.39l-1-1H8.16Zm0,11.3h6.22l1-1v-4.72l-1-1H8.16ZM8.77,218h5.34l.69.68v3.88l-.69.69H8.77Zm0,10.91h5.34l.69.69v4.2l-.69.69H8.77Zm.53-6.22h4.62l.35-.39v-3.39l-.39-.38H9.3Zm0,11.26h4.58l.39-.38v-3.74l-.39-.39H9.3Z"/><path class="cls-2" d="M41,211.54v7h-.54l3.32,15.38h2.06v7H35.52v-7h.7l-.12-.45H32.48l-.11.45H33v7H22.63v-7h2L28,218.55h-.57v-7ZM28,218h.66L25.11,234.5H23.17v5.92H32.4V234.5h-.72L32,233h4.54l.31,1.52H36.1v5.92h9.24V234.5h-2L39.84,218h.65v-5.91H28Zm16.72,17.1v4.74h-8v-4.74h.8L37,232.36H31.49L31,235.11h.84v4.74h-8v-4.74h1.83l3.78-17.73h-.8v-4.74H39.92v4.74h-.84l3.82,17.67Zm-8.51-6.82-1.95-9.43-1.93,9.43Zm-1.95-6.46,1.23,5.88H33.05Zm.54,5.3-.54-2.59-.53,2.59Z"/><path class="cls-2" d="M66.23,215.81v5H59v-2l-.35-.33H54.41l-.35.33v3.59l.35.35H62l4.27,4.27v9.71l-4.14,4.14H51l-4.21-4.14v-5.17h7.26v2l.35.34h4.23l.35-.34V230l-.35-.35H51.12l-4.32-4.3v-9.47l4.32-4.31H62ZM51.36,212l-4,4.05v9.06l4,4h7.47l.69.64v4.09l-.69.65H54.18l-.69-.65V232.2H47.35v4.42l3.88,3.89H61.87l3.82-3.82v-9.28l-3.88-4H54.18l-.69-.64v-4.13l.69-.65h4.65l.69.65v1.68h6.14v-4.27l-3.88-4Zm8.77,7.67v-1.29l-1-1H53.92l-1,1v4.5l1,1h7.51l3.64,3.6v8.77l-3.48,3.48H51.47L48,236.26v-3.54h5V234l1,1h5.18l1-1v-4.54l-1-1H51.58L48,224.78v-8.52l3.63-3.62h9.88l3.63,3.62v3.44Z"/><path class="cls-2" d="M87.67,220.35h-7v-1.82H76.59v4.11h6.3v6.79h-6.3v4.47h4.09v-1.83h7v8.85H67.51v-7h1.83V218.53H67.51v-7H87.67ZM68,212V218h1.81v16.46H68v5.95H87.12v-7.76H81.21v1.8H76v-5.54h6.34v-5.73H76V218h5.17v1.84h5.91v-7.76Zm18.52.61v6.56H81.82v-1.82H75.44v6.46h6.34v4.51H75.44v6.75h6.38v-1.84h4.74v6.57H68.65V235.1h1.84V217.38H68.65v-4.74Z"/><path class="cls-2" d="M108.66,232.07v8.85H89.35v-7h1.84V218.53H89.35v-7h10.88v7h-1.8V233.9h3.18v-1.83ZM97.9,234.44V218h1.84V212H89.88V218h1.84v16.46H89.88v5.95H108v-7.76h-5.8v1.83Zm4.89.61h-5.5V217.38h1.8v-4.74H90.55v4.74h1.83v17.67H90.55v4.73h16.94v-6.57h-4.74Z"/><path class="cls-3" d="M194,211.44v8.87h-5.47v-1.83h-1.94V233.9h1.84v7H177.52v-7h1.84V218.48h-1.94v1.83h-5.53v-8.83Zm-21.6,8.29h4.41v-1.82h3v16.46h-1.84v6h9.87v-6h-1.83V218h3v1.83h4.41V212h-21.1Zm20.46-.57h-3.23v-1.78h-4.19v17.71h1.83v4.74h-8.66v-4.74h1.83V217.38h-4.24v1.83H173v-6.62h19.86Z"/><path class="cls-3" d="M136.66,220.35h-7v-1.82h-4.09v4.11H132v6.79h-6.37v4.47h4.09v-1.83h7v8.85H116.5v-7h1.84V218.53H116.5v-7h20.16ZM117,212V218h1.84v16.46H117v5.95h19.08v-7.76H130.2v1.8H125v-5.54h6.34v-5.73H125V218h5.17v1.84h5.91v-7.76Zm18.51.61v6.56h-4.73v-1.82h-6.36v6.46h6.32v4.51h-6.32v6.75h6.36v-1.84h4.73v6.57H117.72V235.1h1.82V217.38h-1.82v-4.74Z"/><path class="cls-3" d="M215.72,220.35h-7v-1.82h-4.09v4.11H211v6.79h-6.3v4.47h4.09v-1.83h7v8.85H195.57v-7h1.83V218.53h-1.83v-7h20.15ZM196.11,212V218h1.81v16.46h-1.81v5.95h19.08v-7.76h-5.91v1.8h-5.17v-5.54h6.32v-5.73h-6.32V218h5.17v1.84h5.91v-7.76Zm18.51.61v6.56h-4.73v-1.82h-6.38v6.46h6.34v4.51h-6.34v6.75h6.38v-1.84h4.73v6.57h-17.9V235.1h1.84V217.38h-1.84v-4.74Z"/><path class="cls-3" d="M157.61,232.07v8.85H138.34v-7h1.84V218.53h-1.84v-7h10.88v7h-1.75V233.9h3.18v-1.83Zm-10.76,2.37V218h1.84V212h-9.82V218h1.84v16.46h-1.84v5.95H157v-7.76h-5.92v1.83Zm4.89.61h-5.46V217.38h1.79v-4.74h-8.58v4.74h1.82v17.67h-1.82v4.73h17v-6.57h-4.79Z"/><path class="cls-3" d="M170,211.5v7h-1.8V233.9H170v7H159.11v-7h1.83V218.53h-1.83v-7ZM159.62,218h1.84v16.46h-1.84v5.95h9.84v-5.95h-1.82V218h1.82v-5.91h-9.8Zm7.4-.61h1.83v-4.73h-8.62v4.75h1.83v17.67h-1.83v4.73h8.62v-4.73H167Z"/><path class="cls-4" d="M104.08,9.5c.68,6.31-3.23,11.49-9.12,12.26a10.57,10.57,0,0,1-11.9-9c0-.15,0-.3,0-.45A10.56,10.56,0,0,1,91.75.15l.31,0C98.08-.72,103.1,3.45,104.08,9.5Z"/><path class="cls-5" d="M125.74,62.59a15.1,15.1,0,0,1-2-2.32,12.7,12.7,0,0,1-1.62-11.41,7.55,7.55,0,0,1,4.48-4.3c11.09-3,12.13,4.2,13.58,8.34s-2.44,6.45-5.21,9.68a6.8,6.8,0,0,1-6,1.92A7.61,7.61,0,0,1,125.74,62.59Z"/><path class="cls-4" d="M81.59,62.19c2.86.76,6.38.79,8.83-.79,3.91-2.53,6.73-8,5.85-12.77-.83-4.54-8.6-8.6-12.9-7.07s-5.84,7.17-7,11.73C75.05,58.25,77.88,61.2,81.59,62.19Z"/><path class="cls-5" d="M153.22,58.4a19.28,19.28,0,0,0-5.71-2.5,3,3,0,0,0-3.42.87c-.57.6-.65,1-.09,1.62,1.25,1.41,3.36,2.9,4.68,4.3,2.35,2.4,1.26,5.13.12,8a22.93,22.93,0,0,1-2.15,4c-.36.74.11.76.63.3,2.89-2.8,5.63-5.76,8.25-8.82C157.83,63.43,156.23,60.39,153.22,58.4Z"/><path class="cls-4" d="M103.21,84.74c-.78-4.43-3-8.25-6.71-11.95-2.86-2.85-9.08-6.45-12.27-8.94a21,21,0,0,1-3.5-3.23A31.17,31.17,0,0,1,74.65,50C72,41.3,73.41,31.74,75.81,23.14a55.12,55.12,0,0,1,2.8-7.23c.9-2-.15-1.9-.55-1.5-2.15,2.25-2.91,3.23-5.37,7.53A59.58,59.58,0,0,0,65,47.3c-.45,7.91,2.24,14.47,5,21.71,1,2.76,2.07,5.54,3.06,8.32,3,8.6,4.3,19.18,2.15,27.61-1.07,4.13-3.45,12.41-8.42,19.35-1.23,2,.35,1.94,1.82,1.31,9.62-4.42,21.75-8.08,32.36-9a126.3,126.3,0,0,1,1.25-16.94c.33-2.48.63-5,1-7.44A23.8,23.8,0,0,0,103.21,84.74Z"/><path class="cls-6" d="M142.67,28.64a39.82,39.82,0,0,0-5.84-10c-.94-1-1.52-.35-1.16.53,1.32,3.8,3.5,10,3.66,15.59.3,10.5-1.41,17-6.76,25.81C128,68.06,122.24,72.25,116,78.19a28.91,28.91,0,0,0-7.27,12,70.06,70.06,0,0,0-2.24,8.45c-.32,1.59-.58,3.22-.76,4.83-.38,3.22-.45,6.56-.53,9.86v3.1c1.35-.06,2.71-.1,4.07-.1a73.81,73.81,0,0,1,25.49,4.3c1.3.46,1.57-.4.91-1.23-3-3.75-4.45-6.07-5.31-11-1.61-9.26-.11-16.13,2.43-24A119.52,119.52,0,0,1,141,65.81a44.86,44.86,0,0,0,5-21.5C146,36.43,143.51,31.81,142.67,28.64Z"/><path class="cls-1" d="M29.26,163.88A27.58,27.58,0,0,1,43.08,169C53.94,176.76,55,190.59,53,202.77c-.1.64,1.9-2,2-2.86,2-11.89,1.27-25.48-8.86-33.6a27.42,27.42,0,0,0-14.93-6c-1-.06-2,3.53-2,3.53Z"/><path class="cls-1" d="M197.89,192.51c-5.43-19-14.75-37.23-29.58-50.66a84,84,0,0,0-45-20.79c-31.24-4.31-64.45,7.65-85.82,30.83A84.45,84.45,0,0,0,15.68,196.8c-.12.82,2.15-2.14,2.29-3.1,4.49-31.32,29.69-54.47,58.72-64.29s62.4-6.11,86.49,13.77c16.41,13.54,26.59,32.72,32.37,52.93.06.24,2.61-2.49,2.29-3.6Z"/><path class="cls-1" d="M179.79,155c-10.8-4-22.69-5.77-34.09-6.67-24.81-1.95-50.17,2.12-72.41,13.57C57.42,170,43.79,181.7,32.42,195.37c-.43.51-2.24,4.3-1.11,3C51,174.7,77.79,158.64,108.22,153.54a150.38,150.38,0,0,1,58.22,2.1,93,93,0,0,1,11.22,3.17c.63.23,2.4-3.75,2.13-3.85Z"/><path class="cls-1" d="M115.51,122c-9.51,6.19-18.37,15.37-23.18,25.68-11.23,24.07,8.9,43.23,28.2,54.7.79.47,4.49.69,3.89.34-11.85-7.06-24.74-16.44-29.42-30.06-2.84-8.3-1.71-17.08,2.11-24.86,4.86-9.91,13.39-18.73,22.62-24.74,0,0-3.26-1.66-4.22-1Z"/><path class="cls-1" d="M64,132.41c.26,5.19.84,10.38,1.49,15.53a241.16,241.16,0,0,0,6.65,34,145.35,145.35,0,0,0,7.32,20.73c.12.27,1,.41,1.3.48s1.34.2,1.36.25C76.9,191.61,73.51,179,71,166.4a267.11,267.11,0,0,1-3.94-28c-.16-1.76-.3-3.53-.39-5.29,0-.44-2.66-.63-2.67-.73Z"/></g></g></svg>